<svg width="248" height="240" viewBox="0 0 248 240" fill="none" xmlns="http://www.w3.org/2000/svg">
<path d="M105.469 104V108.906C104.031 110.302 102.115 112.729 99.7188 116.188C97.3438 119.646 95.2396 123.375 93.4062 127.375C91.5938 131.271 90.2188 134.823 89.2812 138.031C88.6771 140.094 87.8958 143.417 86.9375 148H80.7188C82.1354 139.458 85.2604 130.958 90.0938 122.5C92.9479 117.542 95.9479 113.26 99.0938 109.656H74.3438V104H105.469ZM124.938 103.25C130.729 103.25 134.917 105.635 137.5 110.406C139.5 114.094 140.5 119.146 140.5 125.562C140.5 131.646 139.594 136.677 137.781 140.656C135.156 146.365 130.865 149.219 124.906 149.219C119.531 149.219 115.531 146.885 112.906 142.219C110.719 138.323 109.625 133.094 109.625 126.531C109.625 121.448 110.281 117.083 111.594 113.438C114.052 106.646 118.5 103.25 124.938 103.25ZM124.875 144.094C127.792 144.094 130.115 142.802 131.844 140.219C133.573 137.635 134.438 132.823 134.438 125.781C134.438 120.698 133.812 116.521 132.562 113.25C131.312 109.958 128.885 108.312 125.281 108.312C121.969 108.312 119.542 109.875 118 113C116.479 116.104 115.719 120.688 115.719 126.75C115.719 131.312 116.208 134.979 117.188 137.75C118.688 141.979 121.25 144.094 124.875 144.094ZM160.562 103.25C166.354 103.25 170.542 105.635 173.125 110.406C175.125 114.094 176.125 119.146 176.125 125.562C176.125 131.646 175.219 136.677 173.406 140.656C170.781 146.365 166.49 149.219 160.531 149.219C155.156 149.219 151.156 146.885 148.531 142.219C146.344 138.323 145.25 133.094 145.25 126.531C145.25 121.448 145.906 117.083 147.219 113.438C149.677 106.646 154.125 103.25 160.562 103.25ZM160.5 144.094C163.417 144.094 165.74 142.802 167.469 140.219C169.198 137.635 170.062 132.823 170.062 125.781C170.062 120.698 169.438 116.521 168.188 113.25C166.938 109.958 164.51 108.312 160.906 108.312C157.594 108.312 155.167 109.875 153.625 113C152.104 116.104 151.344 120.688 151.344 126.75C151.344 131.312 151.833 134.979 152.812 137.75C154.312 141.979 156.875 144.094 160.5 144.094Z" fill="#8D8787"/>
<path d="M107.441 170.117C107.168 168.938 106.5 168.113 105.438 167.645C104.844 167.387 104.184 167.258 103.457 167.258C102.066 167.258 100.922 167.785 100.023 168.84C99.1328 169.887 98.6875 171.465 98.6875 173.574C98.6875 175.699 99.1719 177.203 100.141 178.086C101.109 178.969 102.211 179.41 103.445 179.41C104.656 179.41 105.648 179.062 106.422 178.367C107.195 177.664 107.672 176.746 107.852 175.613H103.855V172.73H111.051V182H108.66L108.297 179.844C107.602 180.664 106.977 181.242 106.422 181.578C105.469 182.164 104.297 182.457 102.906 182.457C100.617 182.457 98.7422 181.664 97.2812 180.078C95.7578 178.484 94.9961 176.305 94.9961 173.539C94.9961 170.742 95.7656 168.5 97.3047 166.812C98.8438 165.125 100.879 164.281 103.41 164.281C105.605 164.281 107.367 164.84 108.695 165.957C110.031 167.066 110.797 168.453 110.992 170.117H107.441ZM119.969 179.645C120.945 179.645 121.695 179.297 122.219 178.602C122.742 177.906 123.004 176.918 123.004 175.637C123.004 174.355 122.742 173.371 122.219 172.684C121.695 171.988 120.945 171.641 119.969 171.641C118.992 171.641 118.238 171.988 117.707 172.684C117.184 173.371 116.922 174.355 116.922 175.637C116.922 176.918 117.184 177.906 117.707 178.602C118.238 179.297 118.992 179.645 119.969 179.645ZM126.508 175.637C126.508 177.512 125.969 179.117 124.891 180.453C123.812 181.781 122.176 182.445 119.98 182.445C117.785 182.445 116.148 181.781 115.07 180.453C113.992 179.117 113.453 177.512 113.453 175.637C113.453 173.793 113.992 172.195 115.07 170.844C116.148 169.492 117.785 168.816 119.98 168.816C122.176 168.816 123.812 169.492 124.891 170.844C125.969 172.195 126.508 173.793 126.508 175.637ZM134.641 179.645C135.617 179.645 136.367 179.297 136.891 178.602C137.414 177.906 137.676 176.918 137.676 175.637C137.676 174.355 137.414 173.371 136.891 172.684C136.367 171.988 135.617 171.641 134.641 171.641C133.664 171.641 132.91 171.988 132.379 172.684C131.855 173.371 131.594 174.355 131.594 175.637C131.594 176.918 131.855 177.906 132.379 178.602C132.91 179.297 133.664 179.645 134.641 179.645ZM141.18 175.637C141.18 177.512 140.641 179.117 139.562 180.453C138.484 181.781 136.848 182.445 134.652 182.445C132.457 182.445 130.82 181.781 129.742 180.453C128.664 179.117 128.125 177.512 128.125 175.637C128.125 173.793 128.664 172.195 129.742 170.844C130.82 169.492 132.457 168.816 134.652 168.816C136.848 168.816 138.484 169.492 139.562 170.844C140.641 172.195 141.18 173.793 141.18 175.637ZM148.293 168.922C149.066 168.922 149.754 169.094 150.355 169.438C150.957 169.773 151.445 170.242 151.82 170.844V164.75H155.207V182H151.961V180.23C151.484 180.988 150.941 181.539 150.332 181.883C149.723 182.227 148.965 182.398 148.059 182.398C146.566 182.398 145.309 181.797 144.285 180.594C143.27 179.383 142.762 177.832 142.762 175.941C142.762 173.762 143.262 172.047 144.262 170.797C145.27 169.547 146.613 168.922 148.293 168.922ZM149.02 179.586C149.965 179.586 150.684 179.234 151.176 178.531C151.668 177.828 151.914 176.918 151.914 175.801C151.914 174.238 151.52 173.121 150.73 172.449C150.246 172.043 149.684 171.84 149.043 171.84C148.066 171.84 147.348 172.211 146.887 172.953C146.434 173.688 146.207 174.602 146.207 175.695C146.207 176.875 146.438 177.82 146.898 178.531C147.367 179.234 148.074 179.586 149.02 179.586Z" fill="black"/>
<path d="M9.74677 77.9115C21.9261 47.3807 45.6911 22.956 75.8137 10.0108L80.6771 21.4097C53.5667 33.0604 32.1783 55.0426 21.2169 82.5203L9.74677 77.9115Z" fill="#FFA629"/>
<path d="M237.228 173.874C238.984 172.425 247.498 144.108 247.952 128.425C248.405 112.741 245.66 97.1238 239.873 82.4658L228.33 86.7275C233.539 99.9197 236.01 113.975 235.601 128.09C235.193 142.206 231.913 156.105 225.95 168.995C227.454 176.287 235.472 175.324 237.228 173.874Z" fill="#14AE5C"/>
<path d="M11.6676 174.84C5.04164 159.975 1.3977 143.947 0.943855 127.669C0.490008 111.392 3.23514 95.184 9.02251 79.9712L20.565 84.3942C15.3564 98.0857 12.8858 112.673 13.2943 127.323C13.7027 141.972 16.9823 156.398 22.9456 169.776C20.3377 175.347 17.668 176.066 11.6676 174.84Z" fill="#FF0505"/>
<path d="M174.354 10.9672C204.224 24.4895 227.519 49.3668 239.113 80.1263L227.557 84.5137C217.122 56.8301 196.157 34.4406 169.274 22.2705L174.354 10.9672Z" fill="#00D43D"/>
<path d="M77.9517 9.11564C108.311 -3.26058 142.325 -3.02605 172.512 9.76764L167.706 21.1909C140.538 9.67656 109.925 9.46548 82.6013 20.6041L77.9517 9.11564Z" fill="#FFEA29"/>
<path d="M22.4844 158.039V155.539L34 159.469V161.742L22.4844 165.633V163.062L31.2266 160.562L22.4844 158.039ZM27.0938 151.805C27.0938 152.32 27.2552 152.721 27.5781 153.008C27.901 153.289 28.3385 153.466 28.8906 153.539V150.078C28.3021 150.115 27.8568 150.294 27.5547 150.617C27.2474 150.935 27.0938 151.331 27.0938 151.805ZM25.2578 151.805C25.2578 151.096 25.3906 150.458 25.6562 149.891C25.9219 149.323 26.3411 148.854 26.9141 148.484C27.4193 148.151 28.0052 147.935 28.6719 147.836C29.0625 147.779 29.625 147.755 30.3594 147.766V153.594C31.2135 153.562 31.8125 153.294 32.1562 152.789C32.3698 152.482 32.4766 152.112 32.4766 151.68C32.4766 151.221 32.3464 150.849 32.0859 150.562C31.9453 150.406 31.75 150.268 31.5 150.148V147.875C32.0052 147.932 32.5182 148.195 33.0391 148.664C33.8672 149.393 34.2812 150.414 34.2812 151.727C34.2812 152.81 33.9323 153.766 33.2344 154.594C32.5365 155.422 31.401 155.836 29.8281 155.836C28.3542 155.836 27.224 155.464 26.4375 154.719C25.651 153.969 25.2578 152.997 25.2578 151.805ZM25.2812 141.633C25.2812 141.591 25.2839 141.557 25.2891 141.531C25.2891 141.5 25.2917 141.435 25.2969 141.336H27.5781C27.5625 141.477 27.5521 141.602 27.5469 141.711C27.5417 141.82 27.5391 141.909 27.5391 141.977C27.5391 142.872 27.8307 143.474 28.4141 143.781C28.7422 143.953 29.2474 144.039 29.9297 144.039H34V146.281H25.4844V144.156H26.9688C26.401 143.812 26.013 143.513 25.8047 143.258C25.4557 142.841 25.2812 142.299 25.2812 141.633ZM35.6328 139.68L35.6484 139.398C35.6589 139.18 35.651 138.971 35.625 138.773C35.599 138.576 35.5391 138.409 35.4453 138.273C35.3568 138.143 35.1719 138.023 34.8906 137.914C34.6094 137.799 34.4375 137.753 34.375 137.773L25.4844 140.898V138.422L31.7656 136.562L25.4844 134.805V132.438L33.8594 135.359C35.474 135.922 36.474 136.367 36.8594 136.695C37.25 137.023 37.4453 137.68 37.4453 138.664C37.4453 138.862 37.4427 139.021 37.4375 139.141C37.4375 139.26 37.4297 139.44 37.4141 139.68H35.6328ZM24.4844 124.148H27.0234L27.0234 121.32C27.0234 120.815 26.9297 120.406 26.7422 120.094C26.5495 119.776 26.2109 119.617 25.7266 119.617C25.1901 119.617 24.8359 119.826 24.6641 120.242C24.5443 120.602 24.4844 121.06 24.4844 121.617L24.4844 124.148ZM28.9297 124.148H32V121.32C32 120.815 31.9323 120.422 31.7969 120.141C31.5469 119.63 31.0677 119.375 30.3594 119.375C29.7604 119.375 29.349 119.622 29.125 120.117C29 120.393 28.9349 120.781 28.9297 121.281V124.148ZM22.4844 120.852C22.5052 119.44 22.9141 118.44 23.7109 117.852C24.2005 117.497 24.7865 117.32 25.4688 117.32C26.1719 117.32 26.737 117.497 27.1641 117.852C27.4036 118.049 27.6224 118.341 27.8203 118.727C28.0339 118.138 28.3724 117.695 28.8359 117.398C29.2995 117.096 29.862 116.945 30.5234 116.945C31.2057 116.945 31.8177 117.117 32.3594 117.461C32.7188 117.68 33.0208 117.953 33.2656 118.281C33.5469 118.651 33.7396 119.089 33.8438 119.594C33.9479 120.094 34 120.638 34 121.227V126.445H22.4844L22.4844 120.852ZM29.8594 110.406C29.9479 110.547 30.0208 110.69 30.0781 110.836C30.1302 110.977 30.1797 111.172 30.2266 111.422L30.3203 111.922C30.4036 112.391 30.5052 112.727 30.625 112.93C30.8281 113.273 31.1432 113.445 31.5703 113.445C31.9505 113.445 32.2266 113.341 32.3984 113.133C32.5651 112.919 32.6484 112.661 32.6484 112.359C32.6484 111.88 32.5078 111.44 32.2266 111.039C31.9453 110.633 31.4323 110.422 30.6875 110.406H29.8594ZM28.8203 111.758C28.7682 111.346 28.7031 111.052 28.625 110.875C28.4896 110.557 28.2786 110.398 27.9922 110.398C27.6432 110.398 27.4036 110.521 27.2734 110.766C27.138 111.005 27.0703 111.359 27.0703 111.828C27.0703 112.354 27.2005 112.727 27.4609 112.945C27.6536 113.102 27.9141 113.206 28.2422 113.258V115.406C27.4974 115.359 26.8854 115.151 26.4063 114.781C25.6563 114.193 25.2813 113.182 25.2813 111.75C25.2813 110.818 25.4661 109.99 25.8359 109.266C26.2057 108.542 26.9036 108.18 27.9297 108.18H31.8359C32.1068 108.18 32.4349 108.174 32.8203 108.164C33.112 108.148 33.3099 108.104 33.4141 108.031C33.5182 107.958 33.6042 107.849 33.6719 107.703H34V110.125C33.8281 110.193 33.6667 110.24 33.5156 110.266C33.3646 110.292 33.1927 110.312 33 110.328C33.3333 110.635 33.6172 110.99 33.8516 111.391C34.1276 111.87 34.2656 112.411 34.2656 113.016C34.2656 113.786 34.0469 114.424 33.6094 114.93C33.1667 115.43 32.5417 115.68 31.7344 115.68C30.6875 115.68 29.9297 115.276 29.4609 114.469C29.2057 114.026 29.0234 113.375 28.9141 112.516L28.8203 111.758ZM25.2813 103.055C25.2813 102.539 25.3958 102.081 25.625 101.68C25.849 101.279 26.1615 100.953 26.5625 100.703H22.5V98.4453H34V100.609H32.8203C33.3255 100.927 33.6927 101.289 33.9219 101.695C34.151 102.102 34.2656 102.607 34.2656 103.211C34.2656 104.206 33.8646 105.044 33.0625 105.727C32.2552 106.404 31.2214 106.742 29.9609 106.742C28.5078 106.742 27.3646 106.409 26.5313 105.742C25.6979 105.07 25.2813 104.174 25.2813 103.055ZM32.3906 102.57C32.3906 101.94 32.1562 101.461 31.6875 101.133C31.2188 100.805 30.612 100.641 29.8672 100.641C28.8255 100.641 28.0807 100.904 27.6328 101.43C27.362 101.753 27.2266 102.128 27.2266 102.555C27.2266 103.206 27.474 103.685 27.9688 103.992C28.4583 104.294 29.0677 104.445 29.7969 104.445C30.5833 104.445 31.2135 104.292 31.6875 103.984C32.1562 103.672 32.3906 103.201 32.3906 102.57Z" fill="black"/>
<path d="M45.9738 65.0171C45.4893 64.665 45.0504 64.5424 44.6572 64.6493C44.267 64.7521 43.9051 65.0331 43.5713 65.4923L42.2531 67.3061L44.9959 69.2995L46.3141 67.4857C46.6478 67.0265 46.7949 66.5893 46.7553 66.1742C46.7188 65.7549 46.4583 65.3692 45.9738 65.0171ZM47.362 63.0804C48.4617 63.8796 49.0369 64.7226 49.0877 65.6094C49.1386 66.4962 48.7889 67.4558 48.0387 68.488L46.6011 70.4661L49.9506 72.9004L48.5451 74.8342L39.2298 68.0641L42.1785 64.0068C42.8583 63.0715 43.6404 62.5003 44.5249 62.2932C45.4094 62.0862 46.3551 62.3486 47.362 63.0804ZM55.6571 62.3775C56.0398 61.8508 56.1463 61.3101 55.9765 60.7553C55.8067 60.2005 55.3763 59.672 54.6853 59.1698C53.9944 58.6677 53.3609 58.423 52.785 58.4358C52.2049 58.4456 51.7234 58.7138 51.3407 59.2404C50.9579 59.7671 50.8499 60.3099 51.0167 60.8689C51.1823 61.4207 51.6106 61.9476 52.3015 62.4498C52.9925 62.952 53.628 63.1982 54.2082 63.1884C54.7914 63.1744 55.2743 62.9041 55.6571 62.3775ZM56.0586 57.2802C57.0698 58.0151 57.7243 58.9351 58.0222 60.0401C58.3159 61.1421 58.0325 62.285 57.1721 63.4689C56.3117 64.6528 55.3121 65.2752 54.1733 65.336C53.0303 65.3939 51.9532 65.0553 50.942 64.3204C49.9477 63.5978 49.2974 62.6809 48.9911 61.5698C48.6847 60.4586 48.9618 59.3111 49.8222 58.1272C50.6826 56.9433 51.6886 56.3255 52.84 56.2738C53.9914 56.2221 55.0643 56.5576 56.0586 57.2802ZM61.4075 54.4651C61.7903 53.9385 61.8968 53.3978 61.7269 52.843C61.5571 52.2882 61.1267 51.7597 60.4358 51.2575C59.7448 50.7553 59.1114 50.5107 58.5355 50.5235C57.9553 50.5333 57.4739 50.8015 57.0911 51.3281C56.7084 51.8547 56.6004 52.3976 56.7672 52.9566C56.9328 53.5083 57.361 54.0353 58.052 54.5375C58.743 55.0396 59.3785 55.2858 59.9586 55.2761C60.5418 55.2621 61.0248 54.9918 61.4075 54.4651ZM61.8091 49.3679C62.8202 50.1028 63.4748 51.0227 63.7727 52.1278C64.0664 53.2297 63.783 54.3726 62.9226 55.5565C62.0621 56.7404 61.0625 57.3628 59.9237 57.4237C58.7807 57.4815 57.7036 57.143 56.6925 56.4081C55.6982 55.6855 55.0478 54.7686 54.7415 53.6574C54.4352 52.5463 54.7123 51.3988 55.5727 50.2149C56.4331 49.031 57.439 48.4132 58.5905 48.3615C59.7419 48.3098 60.8148 48.6453 61.8091 49.3679ZM61.8485 41.6992C61.873 41.6655 61.895 41.6397 61.9145 41.6217C61.9329 41.5964 61.9733 41.5453 62.0357 41.4683L63.881 42.8094C63.7857 42.914 63.7038 43.009 63.6353 43.0944C63.5668 43.1798 63.5126 43.2499 63.4728 43.3047C62.9461 44.0294 62.8284 44.6875 63.1196 45.279C63.284 45.6109 63.6422 45.9775 64.1941 46.3786L67.4867 48.7715L66.1685 50.5853L59.28 45.5789L60.5293 43.8599L61.73 44.7326C61.4729 44.1208 61.3351 43.6504 61.3166 43.3215C61.2793 42.7793 61.4566 42.2385 61.8485 41.6992Z" fill="black"/>
<path d="M106.219 27.5H114.383V29.5234H108.609V32.1719H113.664V34.1719H108.609V39H106.219V27.5ZM120.516 34.8594C120.375 34.9479 120.232 35.0208 120.086 35.0781C119.945 35.1302 119.75 35.1797 119.5 35.2266L119 35.3203C118.531 35.4036 118.195 35.5052 117.992 35.625C117.648 35.8281 117.477 36.1432 117.477 36.5703C117.477 36.9505 117.581 37.2266 117.789 37.3984C118.003 37.5651 118.26 37.6484 118.562 37.6484C119.042 37.6484 119.482 37.5078 119.883 37.2266C120.289 36.9453 120.5 36.4323 120.516 35.6875V34.8594ZM119.164 33.8203C119.576 33.7682 119.87 33.7031 120.047 33.625C120.365 33.4896 120.523 33.2786 120.523 32.9922C120.523 32.6432 120.401 32.4036 120.156 32.2734C119.917 32.138 119.562 32.0703 119.094 32.0703C118.568 32.0703 118.195 32.2005 117.977 32.4609C117.82 32.6536 117.716 32.9141 117.664 33.2422H115.516C115.562 32.4974 115.771 31.8854 116.141 31.4062C116.729 30.6562 117.74 30.2812 119.172 30.2812C120.104 30.2812 120.932 30.4661 121.656 30.8359C122.38 31.2057 122.742 31.9036 122.742 32.9297V36.8359C122.742 37.1068 122.747 37.4349 122.758 37.8203C122.773 38.112 122.818 38.3099 122.891 38.4141C122.964 38.5182 123.073 38.6042 123.219 38.6719V39H120.797C120.729 38.8281 120.682 38.6667 120.656 38.5156C120.63 38.3646 120.609 38.1927 120.594 38C120.286 38.3333 119.932 38.6172 119.531 38.8516C119.052 39.1276 118.51 39.2656 117.906 39.2656C117.135 39.2656 116.497 39.0469 115.992 38.6094C115.492 38.1667 115.242 37.5417 115.242 36.7344C115.242 35.6875 115.646 34.9297 116.453 34.4609C116.896 34.2057 117.547 34.0234 118.406 33.9141L119.164 33.8203ZM127.016 29.4688H124.758V27.4141H127.016V29.4688ZM124.758 30.4844H127.016V39H124.758V30.4844ZM133.805 30.2813C133.846 30.2813 133.88 30.2839 133.906 30.2891C133.938 30.2891 134.003 30.2917 134.102 30.2969V32.5781C133.961 32.5625 133.836 32.5521 133.727 32.5469C133.617 32.5417 133.529 32.5391 133.461 32.5391C132.565 32.5391 131.964 32.8307 131.656 33.4141C131.484 33.7422 131.398 34.2474 131.398 34.9297V39H129.156V30.4844H131.281V31.9688C131.625 31.401 131.924 31.013 132.18 30.8047C132.596 30.4557 133.138 30.2813 133.805 30.2813Z" fill="black"/>
<path d="M181.33 49.0663C181.794 48.406 181.907 47.7077 181.667 46.9715C181.531 46.5619 181.302 46.1767 180.979 45.8158C180.36 45.125 179.59 44.791 178.666 44.8137C177.75 44.8368 176.768 45.3173 175.72 46.2552C174.665 47.2001 174.133 48.1094 174.125 48.9831C174.118 49.8569 174.388 50.6003 174.937 51.2135C175.476 51.815 176.089 52.1532 176.779 52.2282C177.472 52.2998 178.14 52.1283 178.782 51.7139L177.006 49.7289L178.437 48.4471L181.637 52.0212L177.032 56.1428L175.969 54.9554L176.879 53.8161C176.162 53.8355 175.597 53.7821 175.184 53.656C174.469 53.4431 173.802 52.9912 173.184 52.3005C172.166 51.1634 171.726 49.8795 171.865 48.4486C171.979 46.9832 172.723 45.6357 174.097 44.406C175.486 43.1624 176.942 42.5476 178.464 42.5618C179.987 42.5759 181.311 43.2117 182.436 44.469C183.413 45.5595 183.918 46.6829 183.954 47.8394C183.997 48.9963 183.649 49.9932 182.909 50.8301L181.33 49.0663ZM182.168 59.5253C182.602 60.0103 183.108 60.2283 183.686 60.1791C184.264 60.13 184.872 59.8205 185.508 59.2508C186.145 58.6811 186.517 58.1134 186.626 57.5477C186.739 56.9786 186.578 56.4514 186.144 55.9664C185.709 55.4813 185.201 55.2614 184.62 55.3067C184.046 55.3523 183.44 55.66 182.804 56.2297C182.167 56.7994 181.793 57.3689 181.68 57.9381C181.571 58.5111 181.734 59.0402 182.168 59.5253ZM187.066 60.9913C186.135 61.825 185.098 62.2711 183.955 62.3296C182.816 62.3846 181.758 61.8669 180.782 60.7764C179.806 59.686 179.408 58.5777 179.588 57.4516C179.772 56.3221 180.33 55.3404 181.261 54.5067C182.177 53.6869 183.211 53.2443 184.361 53.1789C185.512 53.1134 186.575 53.6259 187.552 54.7164C188.528 55.8069 188.92 56.9203 188.728 58.0568C188.536 59.1933 187.982 60.1715 187.066 60.9913ZM188.692 66.8131C189.126 67.2982 189.632 67.5162 190.21 67.467C190.788 67.4178 191.395 67.1084 192.032 66.5387C192.668 65.969 193.041 65.4013 193.15 64.8356C193.262 64.2664 193.102 63.7393 192.667 63.2542C192.233 62.7691 191.725 62.5492 191.144 62.5945C190.569 62.6402 189.964 62.9479 189.328 63.5176C188.691 64.0873 188.317 64.6568 188.204 65.2259C188.095 65.799 188.257 66.328 188.692 66.8131ZM193.59 68.2792C192.659 69.1129 191.621 69.559 190.478 69.6175C189.339 69.6725 188.282 69.1548 187.306 68.0643C186.329 66.9738 185.932 65.8656 186.112 64.7395C186.296 63.6099 186.854 62.6283 187.785 61.7946C188.701 60.9748 189.734 60.5322 190.885 60.4667C192.036 60.4013 193.099 60.9138 194.075 62.0043C195.052 63.0947 195.444 64.2082 195.252 65.3447C195.06 66.4812 194.506 67.4594 193.59 68.2792ZM200.088 68.8268C200.432 69.211 200.652 69.6289 200.749 70.0806C200.85 70.5287 200.834 70.9797 200.702 71.4335L203.729 68.7239L205.235 70.4062L196.666 78.0763L195.223 76.4639L196.102 75.6771C195.514 75.7773 194.999 75.7525 194.557 75.6027C194.115 75.4528 193.693 75.1528 193.29 74.7027C192.626 73.9615 192.366 73.0692 192.508 72.0259C192.658 70.9829 193.203 70.0412 194.142 69.2005C195.225 68.2313 196.299 67.7172 197.364 67.6581C198.433 67.6029 199.341 67.9925 200.088 68.8268ZM195.114 73.9294C195.535 74.399 196.029 74.5997 196.597 74.5315C197.165 74.4634 197.726 74.1809 198.281 73.6842C199.058 72.9894 199.437 72.2967 199.42 71.606C199.406 71.1847 199.257 70.815 198.972 70.4968C198.538 70.0117 198.034 69.8197 197.461 69.9208C196.894 70.0222 196.339 70.3161 195.796 70.8024C195.21 71.327 194.843 71.8618 194.695 72.4069C194.554 72.9523 194.694 73.4599 195.114 73.9294Z" fill="black"/>
<path d="M222.477 104.734V98.6406H220.031V104.234H218.031V98.6406H215.07V105.016H213V96.2891H224.516V104.734H222.477ZM213 105.875L217.312 108.781L221.5 106V108.727L219.031 110.148L221.5 111.539V114.188L217.352 111.391L213 114.297V111.523L215.555 110.055L213 108.578V105.875ZM218.461 120.703C218.779 120.661 219.065 120.555 219.32 120.383C219.664 120.133 219.836 119.745 219.836 119.219C219.836 118.469 219.464 117.956 218.719 117.68C218.323 117.534 217.797 117.461 217.141 117.461C216.516 117.461 216.013 117.534 215.633 117.68C214.924 117.945 214.57 118.445 214.57 119.18C214.57 119.701 214.711 120.07 214.992 120.289C215.273 120.508 215.638 120.641 216.086 120.688V122.961C215.409 122.909 214.768 122.664 214.164 122.227C213.19 121.529 212.703 120.495 212.703 119.125C212.703 117.755 213.109 116.747 213.922 116.102C214.734 115.456 215.789 115.133 217.086 115.133C218.549 115.133 219.688 115.49 220.5 116.203C221.312 116.917 221.719 117.901 221.719 119.156C221.719 120.224 221.479 121.096 221 121.773C220.521 122.456 219.674 122.859 218.461 122.984V120.703ZM219.906 127.883C219.906 127.367 219.745 126.966 219.422 126.68C219.099 126.398 218.661 126.221 218.109 126.148V129.609C218.698 129.573 219.143 129.393 219.445 129.07C219.753 128.753 219.906 128.357 219.906 127.883ZM221.742 127.883C221.742 128.591 221.609 129.229 221.344 129.797C221.078 130.365 220.659 130.833 220.086 131.203C219.581 131.536 218.995 131.753 218.328 131.852C217.938 131.909 217.375 131.932 216.641 131.922V126.094C215.786 126.125 215.188 126.393 214.844 126.898C214.63 127.206 214.523 127.576 214.523 128.008C214.523 128.466 214.654 128.839 214.914 129.125C215.055 129.281 215.25 129.419 215.5 129.539V131.812C214.995 131.755 214.482 131.492 213.961 131.023C213.133 130.294 212.719 129.273 212.719 127.961C212.719 126.878 213.068 125.922 213.766 125.094C214.464 124.266 215.599 123.852 217.172 123.852C218.646 123.852 219.776 124.224 220.562 124.969C221.349 125.719 221.742 126.69 221.742 127.883ZM213 135.703V133.477H224.516V135.703H213ZM213 140.156V137.93H224.516V140.156H213ZM219.906 145.695C219.906 145.18 219.745 144.779 219.422 144.492C219.099 144.211 218.661 144.034 218.109 143.961V147.422C218.698 147.385 219.143 147.206 219.445 146.883C219.753 146.565 219.906 146.169 219.906 145.695ZM221.742 145.695C221.742 146.404 221.609 147.042 221.344 147.609C221.078 148.177 220.659 148.646 220.086 149.016C219.581 149.349 218.995 149.565 218.328 149.664C217.938 149.721 217.375 149.745 216.641 149.734V143.906C215.786 143.938 215.188 144.206 214.844 144.711C214.63 145.018 214.523 145.388 214.523 145.82C214.523 146.279 214.654 146.651 214.914 146.938C215.055 147.094 215.25 147.232 215.5 147.352V149.625C214.995 149.568 214.482 149.305 213.961 148.836C213.133 148.107 212.719 147.086 212.719 145.773C212.719 144.69 213.068 143.734 213.766 142.906C214.464 142.078 215.599 141.664 217.172 141.664C218.646 141.664 219.776 142.036 220.562 142.781C221.349 143.531 221.742 144.503 221.742 145.695ZM221.719 155.961C221.719 156.841 221.487 157.56 221.023 158.117C220.565 158.68 219.802 158.961 218.734 158.961H213V156.68H218.18C218.628 156.68 218.971 156.62 219.211 156.5C219.648 156.281 219.867 155.865 219.867 155.25C219.867 154.495 219.547 153.977 218.906 153.695C218.568 153.549 218.135 153.477 217.609 153.477H213V151.258H221.5V153.406H220.258C220.695 153.693 221.01 153.964 221.203 154.219C221.547 154.677 221.719 155.258 221.719 155.961ZM219.852 160.148H221.438V161.336H223.812V163.539H221.438V164.922H219.852V163.539H215.352C215.003 163.539 214.784 163.583 214.695 163.672C214.612 163.76 214.57 164.031 214.57 164.484C214.57 164.552 214.57 164.622 214.57 164.695C214.576 164.773 214.581 164.849 214.586 164.922H212.922L212.883 163.867C212.846 162.815 213.029 162.096 213.43 161.711C213.685 161.461 214.078 161.336 214.609 161.336H219.852V160.148Z" fill="black"/>
</svg>
