<svg width="141" height="44" viewBox="0 0 141 44" fill="none" xmlns="http://www.w3.org/2000/svg">
<mask id="mask0_573_18143" style="mask-type:luminance" maskUnits="userSpaceOnUse" x="27" y="0" width="11" height="10">
<path d="M27.5258 0H37.947V9.75577H27.5258V0Z" fill="white"/>
</mask>
<g mask="url(#mask0_573_18143)">
<path fill-rule="evenodd" clip-rule="evenodd" d="M36.9208 2.43414C36.8122 3.49336 36.7705 4.54373 36.7893 5.57345C37.1275 5.35364 37.4636 5.1294 37.7986 4.90074C37.7089 3.35174 37.7443 1.72307 37.9197 0.00146484C34.7361 3.89167 31.4231 7.26113 27.7552 9.19221C27.8074 9.29991 27.8523 9.4135 27.893 9.53595C30.6633 8.07693 34.5149 5.37282 36.9208 2.43414Z" fill="#008037"/>
</g>
<mask id="mask1_573_18143" style="mask-type:luminance" maskUnits="userSpaceOnUse" x="38" y="9" width="4" height="8">
<path d="M38.7487 9.75574H41.4844V16.176H38.7487V9.75574Z" fill="white"/>
</mask>
<g mask="url(#mask1_573_18143)">
<path fill-rule="evenodd" clip-rule="evenodd" d="M39.6275 11.4008C39.379 11.8773 39.1484 12.3612 38.9333 12.8539C38.9542 13.8792 39.0283 14.8986 39.1525 15.9136C39.6671 13.8482 40.4281 11.8035 41.4844 9.78394C40.6473 10.0495 39.8122 10.2944 38.9803 10.5127C38.9584 10.8756 38.9438 11.2385 38.9354 11.6C39.1713 11.538 39.402 11.4731 39.6275 11.4023V11.4008Z" fill="#008037"/>
</g>
<path fill-rule="evenodd" clip-rule="evenodd" d="M27.4611 10.4521C27.4402 10.309 27.412 10.1704 27.3755 10.0376C31.6289 9.28228 35.7603 6.86879 39.8478 3.85339C37.7894 11.234 38.613 17.7797 40.8623 23.9137L28.8712 20.1784C28.96 19.8848 29.0299 19.575 29.0852 19.2564L38.8259 22.1818C37.1256 17.5481 36.7947 11.6677 38.3478 6.09133C35.2603 8.36911 30.6739 9.8827 27.4611 10.4536V10.4521Z" fill="#008037"/>
<path fill-rule="evenodd" clip-rule="evenodd" d="M36.5568 9.93375L36.5778 9.76013C36.5704 9.818 36.5641 9.87588 36.5568 9.93375Z" fill="#008037"/>
<path fill-rule="evenodd" clip-rule="evenodd" d="M36.6278 9.38501C36.6352 9.32862 36.6436 9.27074 36.6509 9.21436C36.6436 9.27223 36.6352 9.32862 36.6278 9.38501Z" fill="#008037"/>
<path fill-rule="evenodd" clip-rule="evenodd" d="M36.6517 9.21106C36.6601 9.15467 36.6685 9.09679 36.6769 9.04041L36.6517 9.21106Z" fill="#008037"/>
<path fill-rule="evenodd" clip-rule="evenodd" d="M36.6799 9.01893C36.6883 8.96848 36.6957 8.91654 36.7041 8.86609C36.6957 8.91803 36.6873 8.96848 36.6799 9.01893Z" fill="#008037"/>
<path fill-rule="evenodd" clip-rule="evenodd" d="M36.707 8.84501C36.7165 8.78713 36.7249 8.72778 36.7343 8.67139C36.7249 8.72926 36.7165 8.78713 36.707 8.84501Z" fill="#008037"/>
<path fill-rule="evenodd" clip-rule="evenodd" d="M36.1079 5.20321C36.1089 5.46728 36.1141 5.73282 36.1225 5.99689C35.872 6.15327 35.6194 6.30669 35.3657 6.45864C35.3355 6.43946 35.3062 6.41733 35.278 6.39226C35.1653 6.29489 35.0766 6.16064 35.015 6.00722C34.2864 6.66222 33.5182 7.28773 32.7375 7.87192C32.2792 8.09026 31.8189 8.29532 31.3555 8.48415C31.8701 8.13304 32.3784 7.7657 32.8784 7.38509C33.8585 6.63862 34.8198 5.82576 35.7352 4.93029L36.1058 4.56738L36.1089 5.20321H36.1079Z" fill="#008037"/>
<path fill-rule="evenodd" clip-rule="evenodd" d="M4.63014 8.29525C4.6792 8.86322 4.70842 9.43266 4.72095 10.0006L4.97146 10.0626C4.96728 9.82655 4.95893 9.59051 4.94849 9.35447C5.09149 9.3471 5.23449 9.28661 5.36392 9.16859C5.48605 9.05795 5.58103 8.90895 5.6447 8.74077L9.42532 11.1425L10.4054 11.38L4.5769 7.67712L4.63014 8.29525Z" fill="#008037"/>
<path fill-rule="evenodd" clip-rule="evenodd" d="M2.6168 9.49176C2.53956 7.57985 2.29845 5.66498 1.93103 3.75012L12.4702 10.5805L12.5955 10.6601C12.4692 10.9095 12.3606 11.1794 12.2625 11.4612L11.9859 11.2857L3.58544 5.94971C3.82447 7.19923 3.96643 8.50187 4.00505 9.82811L2.6168 9.49176Z" fill="#008037"/>
<mask id="mask2_573_18143" style="mask-type:luminance" maskUnits="userSpaceOnUse" x="0" y="16" width="3" height="7">
<path d="M0 16.5537H2.40803V22.974H0V16.5537Z" fill="white"/>
</mask>
<g mask="url(#mask2_573_18143)">
<path fill-rule="evenodd" clip-rule="evenodd" d="M1.72121 21.1137C1.94354 20.6446 2.14813 20.1666 2.33705 19.6827C2.28486 18.7061 2.18257 17.7369 2.03122 16.7765C1.60535 18.7799 0.943589 20.7803 0 22.7763C0.791195 22.4694 1.5803 22.1818 2.36732 21.9221C2.37567 21.5725 2.3788 21.2258 2.37567 20.8806C2.1523 20.9529 1.93415 21.0311 1.72121 21.1137Z" fill="#008037"/>
</g>
<path fill-rule="evenodd" clip-rule="evenodd" d="M11.6475 21.7331L11.6569 22.186C8.26666 23.4105 4.98706 25.6661 1.75131 28.3334C3.48087 21.1563 2.48718 14.9603 0.142822 9.2467L11.7101 12.0526C11.6339 12.3388 11.5776 12.6383 11.5348 12.9466L2.14273 10.7721C3.91405 15.0887 4.4182 20.6813 3.11137 26.1028C5.47973 24.1496 8.83344 22.6286 11.6475 21.7346V21.7331Z" fill="#008037"/>
<path fill-rule="evenodd" clip-rule="evenodd" d="M4.32546 23.474C4.78995 19.8493 4.55509 16.0845 3.58123 12.659L3.41736 12.0822L11.6769 13.9941L11.655 14.3216C11.6341 14.624 11.6164 14.9264 11.5944 15.2303C11.5527 15.7939 11.5328 16.3781 11.5454 16.946C11.5464 17.0213 11.5506 17.1393 11.5579 17.2794L11.5892 18.8299C11.2051 18.0702 11.2813 16.0874 11.3471 15.1934C11.369 14.8969 11.3867 14.593 11.4076 14.2876L3.81296 12.5292L4.64277 12.7209C4.6125 12.9068 4.54779 13.0853 4.44967 13.2373C4.34633 13.3966 4.21899 13.5072 4.0833 13.5662C4.75028 16.3766 4.95069 19.3728 4.70018 22.3174L4.71062 22.1905C4.93295 22.1551 5.16467 22.2495 5.34211 22.4752C5.4444 22.608 5.51747 22.7688 5.55922 22.9443L5.48094 22.9886C7.44744 21.8615 9.62166 20.969 11.6195 20.3538L11.6268 20.7094C10.3836 21.0929 9.14882 21.562 7.94533 22.1064C6.83578 22.6095 5.73562 23.1833 4.672 23.856L4.24195 24.129L4.32546 23.474Z" fill="#008037"/>
<path fill-rule="evenodd" clip-rule="evenodd" d="M4.70025 22.3204L4.68555 22.4866C4.6908 22.4317 4.695 22.3753 4.70025 22.3204Z" fill="#008037"/>
<path fill-rule="evenodd" clip-rule="evenodd" d="M4.63242 23.0167C4.62612 23.0716 4.61983 23.1265 4.61353 23.1814L4.63242 23.0167Z" fill="#008037"/>
<path fill-rule="evenodd" clip-rule="evenodd" d="M19.9938 8.2511V8.15226C19.9938 7.81148 20.0763 7.49578 20.2161 7.24499C20.4082 6.89831 20.7078 6.67407 21.0428 6.67407H22.5062C23.0824 6.67407 23.5552 7.33941 23.5552 8.15226V21.8572C23.5552 21.9812 23.5448 22.1007 23.5239 22.2157H20.0251C20.0043 22.1007 19.9938 21.9812 19.9938 21.8572V21.7599C19.9938 18.4598 19.9938 11.5615 19.9938 8.2511ZM27.6469 13.0117L27.315 20.1091C27.2691 20.205 27.1511 20.3643 27.1094 20.4204C26.9027 20.6977 26.6939 20.9603 26.4966 21.2495C26.1324 21.7805 25.742 22.2157 25.194 22.2157H24.3621C24.3423 22.1877 24.3245 22.1567 24.3068 22.1257C24.1679 21.875 24.0855 21.5593 24.0855 21.2185V9.03888C24.0855 8.6981 24.1679 8.3824 24.3068 8.13161C24.4999 7.78493 24.7994 7.56069 25.1345 7.56069H26.5979C27.1741 7.56069 27.6469 8.22603 27.6469 9.04036V13.0117ZM19.449 21.5179V21.5312C19.449 21.7776 19.4051 22.0107 19.3289 22.2157H18.8436C18.4814 22.2157 18.1327 22.3928 17.8812 22.7704C17.8311 22.8471 17.7872 22.9268 17.7497 23.0094H16.9366C16.6015 23.0094 16.3019 22.7867 16.1099 22.4385C15.971 22.1877 15.8875 21.872 15.8875 21.5312V9.35163C15.8875 9.01085 15.971 8.69515 16.1099 8.44436C16.3019 8.09768 16.6015 7.87344 16.9366 7.87344H18.3999C18.9772 7.87344 19.4479 8.53878 19.4479 9.35163V21.5179H19.449ZM27.9287 19.1812L28.1907 19.3685C28.2074 19.2933 28.2241 19.2166 28.2387 19.1399L28.031 19.0779L28.1761 17.6425C28.2085 17.3238 28.2387 17.0052 28.2732 16.688C28.3306 16.1495 28.3682 15.6008 28.3744 15.0549C28.3776 14.8558 28.3703 14.4132 28.3348 14.1152L28.1417 14.0163L27.8974 19.2638L27.9298 19.1812H27.9287ZM24.2087 28.0016C27.8484 28.0016 28.3588 27.2197 30.0539 24.4802L27.5112 22.6229L26.7033 22.0328C26.457 22.3588 26.1919 22.6288 25.8902 22.7955L25.885 22.7985L25.8338 22.825L25.8088 22.8383L25.8057 22.8398L25.7817 22.8501L25.7775 22.853L25.7524 22.8634L25.7493 22.8648L25.7242 22.8752L25.7201 22.8766L25.695 22.887L25.6919 22.8884L25.6814 22.8914L25.6627 22.8988L25.6355 22.9076L25.6324 22.9091L25.6053 22.9165L25.6032 22.9179L25.5896 22.9209L25.5426 22.9342L25.5155 22.9416H25.5124L25.4842 22.9475L25.4821 22.9489L25.4529 22.9534L25.4508 22.9548L25.4215 22.9593L25.4205 22.9607L25.3902 22.9652H25.3881L25.3579 22.9681H25.3568L25.3245 22.9725L25.2932 22.9755L25.2608 22.977H25.2284L25.195 22.9784C25.195 22.9799 23.1544 22.9784 22.978 22.9784H20.3999C19.5878 22.9784 17.9375 22.4739 18.1265 24.318C18.2058 25.0969 18.5419 26.0174 18.664 26.5205C18.8634 27.3333 19.498 28.0002 20.0752 28.0002H24.2087V28.0016ZM11.9441 20.1297V12.3847L11.9493 12.3685L11.9441 12.367V11.1913C11.9441 10.849 12.0276 10.5348 12.1664 10.284C12.3585 9.93583 12.658 9.71159 12.9921 9.71159H14.4565C15.0327 9.71159 15.5045 10.3784 15.5045 11.1913V21.3217C15.5045 22.1361 15.0327 22.7999 14.4565 22.7999H12.9921C12.658 22.7999 12.3585 22.5772 12.1664 22.229C12.0276 21.9782 11.9441 21.6625 11.9441 21.3217V20.1474L11.9493 20.1445L11.9441 20.1283V20.1297Z" fill="#100F0D"/>
<path fill-rule="evenodd" clip-rule="evenodd" d="M28.6761 27.143C28.5028 27.3525 28.3191 27.5472 28.1239 27.7198C26.9538 28.748 25.3735 28.7849 24.0385 28.7849H20.0972C19.6796 28.7849 19.2621 28.5459 18.925 28.1653C18.6233 27.8275 18.3843 27.3761 18.2643 26.8848C18.1557 26.4422 18.0044 26.0144 17.8937 25.5645C17.8217 25.2694 17.7591 24.9626 17.7277 24.6513C17.7058 24.4403 17.7017 24.2294 17.7194 24.0258H17.1056C16.637 24.0258 16.1975 23.7204 15.9105 23.2026L15.8667 23.1185C15.589 23.5537 15.1872 23.8266 14.7415 23.8266H13.3459C13.0693 23.8266 12.8031 23.7219 12.5714 23.5272C12.5714 27.5384 13.372 30.6939 15.9658 31.61C15.9084 31.5908 16.519 33.7019 16.5994 34.0737C16.8113 35.0473 16.994 36.1936 17.1328 37.5552H24.2535C24.3913 36.1936 24.574 35.0473 24.7848 34.0737C25.0155 33.0174 25.2796 32.1632 25.5593 31.4536C25.4675 31.4861 28.6761 30.1717 28.6761 27.143ZM27.3223 38.0642L26.3923 35.5681C26.2722 36.1951 26.1668 36.8574 26.0635 37.5892L26.0343 37.8001C26.4633 37.8783 26.8933 37.9668 27.3223 38.0642ZM24.5771 36.9799C24.5542 37.1746 24.5333 37.3679 24.5124 37.5641L24.7191 37.5892C25.0072 37.629 25.2952 37.6733 25.5823 37.7219L25.5614 37.6187C25.3464 36.5639 25.5291 35.3571 25.8766 34.1828L25.718 33.758L25.3735 32.8345C25.2441 33.2741 25.1314 33.7255 25.0333 34.1799C24.8339 35.0945 24.6888 36.0343 24.5771 36.9799Z" fill="#100F0D"/>
<path fill-rule="evenodd" clip-rule="evenodd" d="M25.8099 37.5168C26.0823 35.5902 26.3547 33.5912 27.6334 30.6599C26.6804 32.6028 25.3851 35.4308 25.8099 37.5168ZM14.2008 35.9531C13.9983 34.5162 13.7948 33.0277 12.8418 30.8414C13.5516 32.2901 14.5181 34.3996 14.2008 35.9531ZM15.5859 37.5168C16.0108 35.4308 14.7144 32.6028 13.7624 30.6599C15.0411 33.5912 15.3135 35.5902 15.5859 37.5168ZM27.195 35.9531C26.8777 34.3996 27.8442 32.2901 28.554 30.8414C27.601 33.0277 27.3975 34.5162 27.195 35.9531Z" fill="#008037"/>
<path fill-rule="evenodd" clip-rule="evenodd" d="M25.8807 37.4681L25.8213 37.893L25.7492 37.5419C25.5321 36.4753 25.7513 35.2258 26.1469 33.9984C26.5383 32.7842 27.102 31.5893 27.579 30.6156L27.5811 30.6097L27.6865 30.7056C26.4287 33.5912 26.149 35.5695 25.8807 37.4696V37.4681ZM25.8087 37.0728C25.9987 35.7465 26.2231 34.3583 26.7993 32.6338C26.6031 33.1014 26.4193 33.5853 26.2617 34.0707C25.9298 35.1048 25.7231 36.1493 25.8087 37.0728ZM14.1391 35.9708L14.1329 35.9221C13.9324 34.5088 13.7247 33.0365 12.7885 30.8886L12.8928 30.7912L12.896 30.7971C13.2519 31.5229 13.6715 32.4154 13.9638 33.3212C14.2602 34.2418 14.4251 35.1771 14.2612 35.9781L14.1903 36.3292L14.1391 35.9708ZM13.6172 32.7429C13.9283 33.7697 14.0754 34.6401 14.1955 35.4692C14.2258 34.8245 14.0786 34.1061 13.8489 33.3935C13.778 33.1752 13.7007 32.9568 13.6172 32.7429ZM15.5869 37.0728C15.6725 36.1493 15.4658 35.1048 15.1339 34.0707C14.9773 33.5853 14.7925 33.1029 14.5973 32.6367C15.1725 34.3583 15.3969 35.7465 15.5869 37.0728ZM15.2476 33.9984C15.6432 35.2258 15.8635 36.4753 15.6453 37.5419L15.5743 37.893L15.5148 37.4726C15.2466 35.5725 14.9668 33.5927 13.708 30.7056L13.8135 30.6097L13.8155 30.6142C14.2936 31.5878 14.8562 32.7828 15.2476 33.9984ZM27.1343 35.9781C26.9705 35.1771 27.1354 34.2418 27.4318 33.3212C27.7241 32.4154 28.1437 31.5244 28.4996 30.7971L28.5017 30.7927L28.6071 30.8886C27.6709 33.0365 27.4631 34.5088 27.2627 35.9221L27.2053 36.3292L27.1343 35.9781ZM27.5466 33.395C27.317 34.1061 27.1688 34.8245 27.2001 35.4707C27.3201 34.6401 27.4673 33.7712 27.7784 32.7429C27.6949 32.9583 27.6166 33.1752 27.5466 33.3935V33.395Z" fill="#008037"/>
<mask id="mask3_573_18143" style="mask-type:luminance" maskUnits="userSpaceOnUse" x="3" y="38" width="35" height="6">
<path d="M3.74402 38.0806H37.4126V43.0536H3.74402V38.0806Z" fill="white"/>
</mask>
<g mask="url(#mask3_573_18143)">
<path fill-rule="evenodd" clip-rule="evenodd" d="M37.2654 43.0505C26.0467 39.597 14.9491 39.597 3.83691 43.0505C14.8207 36.8589 25.9476 36.2496 37.2654 43.0505Z" fill="#008037"/>
</g>
<path fill-rule="evenodd" clip-rule="evenodd" d="M29.2657 17.8623L36.28 19.969C36.3186 19.7772 36.3927 19.5957 36.5002 19.4438C36.614 19.283 36.7508 19.1768 36.8948 19.1237C36.304 16.185 36.1944 13.0855 36.5399 10.0686C36.3061 10.0893 36.0681 9.9757 35.8907 9.72638C35.7884 9.58033 35.7184 9.40625 35.6798 9.22185L35.7612 9.18054C33.1194 10.4935 30.1456 11.3964 27.6458 11.8448V12.3051C27.8284 12.2844 27.9892 12.2874 28.2313 12.4098L28.9787 12.7934C29.6634 13.146 29.4776 15.8236 29.3607 16.9197C29.3273 17.228 29.297 17.5452 29.2647 17.8623H29.2657ZM33.0881 15.9091C32.4785 15.9917 31.9378 15.3603 31.8794 14.5017C31.8209 13.6417 32.2687 12.8775 32.8783 12.7964C33.6194 12.696 34.2091 13.6372 34.0713 14.6493C33.9816 15.3131 33.5891 15.8413 33.0881 15.9091Z" fill="#008037"/>
<path fill-rule="evenodd" clip-rule="evenodd" d="M32.9567 14.4131L32.9891 15.2216C32.702 15.2407 32.6968 14.838 32.6885 14.81C32.6853 14.7982 32.654 14.7657 32.653 14.866C32.6519 14.9442 32.6425 15.2511 32.6728 15.285C32.7292 15.3499 32.9108 15.3558 32.9933 15.347L33.0068 15.673L33.131 15.6641L33.1175 15.3189C33.464 15.1803 33.5413 14.6241 33.2427 14.2509L33.0684 14.0694L33.0423 13.3819C33.2887 13.3701 33.3022 13.6917 33.3074 13.7035C33.3116 13.7124 33.344 13.7463 33.3398 13.6327L33.3273 13.2934L33.0361 13.261L33.0246 12.9349L32.9004 12.9438L32.9139 13.2919C32.5998 13.4277 32.5476 13.8953 32.7991 14.2361C32.8377 14.2892 32.8858 14.3438 32.9432 14.3999L32.9567 14.4131ZM32.9181 13.4262L32.9379 13.9366C32.7908 13.7655 32.7772 13.5457 32.9181 13.4262ZM33.0862 14.5444C33.2751 14.7598 33.2855 15.0578 33.1112 15.1803L33.0862 14.5444Z" fill="#008037"/>
<path fill-rule="evenodd" clip-rule="evenodd" d="M8.19892 17.849L8.23755 18.8212C7.89205 18.8448 7.88579 18.3609 7.87431 18.3255C7.87117 18.3122 7.8336 18.2739 7.83151 18.3948C7.83047 18.4878 7.82003 18.858 7.85552 18.8994C7.92441 18.9775 8.1436 18.9849 8.24276 18.9746L8.25842 19.367L8.40768 19.3552L8.39098 18.9392C8.80954 18.774 8.90349 18.1027 8.54233 17.6543L8.33253 17.4344L8.30122 16.6068C8.5987 16.5921 8.61435 16.9786 8.62062 16.9933C8.62584 17.0037 8.6655 17.045 8.65924 16.9093L8.64462 16.5006L8.29391 16.4608L8.28034 16.0669L8.13003 16.0787L8.14674 16.4991C7.76784 16.6629 7.70521 17.225 8.00791 17.6366C8.05593 17.7 8.11438 17.7664 8.18222 17.8328L8.19892 17.849ZM8.15195 16.6599L8.17701 17.2751C7.99956 17.0701 7.98182 16.803 8.15195 16.6599ZM8.35549 18.0068C8.58304 18.2665 8.59452 18.625 8.38472 18.7725L8.35549 18.0068Z" fill="#008037"/>
<path d="M50.6518 29.5474H56.638V34.8622H45.3872V7.58435H50.6518V29.5474Z" fill="#004AAD"/>
<path d="M62.1646 7.58435H66.6161C69.5635 7.58435 71.0372 9.34398 71.0372 12.8561V29.5905C71.0372 33.1061 69.5635 34.8622 66.6161 34.8622H62.1646C59.2172 34.8622 57.7435 33.1061 57.7435 29.5905V12.8561C57.7435 9.34398 59.2172 7.58435 62.1646 7.58435ZM65.7726 28.6137V13.8328C65.7726 13.2116 65.521 12.8991 65.0205 12.8991H63.7602C63.2571 12.8991 63.0081 13.2116 63.0081 13.8328V28.6137C63.0081 29.2385 63.2571 29.5474 63.7602 29.5474H65.0205C65.521 29.5474 65.7726 29.2385 65.7726 28.6137Z" fill="#004AAD"/>
<path d="M83.1878 34.8622L82.578 30.7827H77.9537L77.3235 34.8622H72.1504L77.1101 7.58435H83.513L88.4727 34.8622H83.1878ZM78.7667 25.511H81.7751L80.3014 15.7002L78.7667 25.511Z" fill="#004AAD"/>
<path d="M98.4876 7.58435H103.295V34.8622H98.7925L94.4934 20.541V34.8622H89.676V7.58435H94.1885L98.4876 22.1641V7.58435Z" fill="#004AAD"/>
<path d="M105.702 7.58435H110.967V34.8622H105.702V7.58435Z" fill="#004AAD"/>
<path d="M124.945 12.8991H118.634V19.5211H124.101V24.4049H118.634V34.8622H113.369V7.58435H124.945V12.8991Z" fill="#004AAD"/>
<path d="M135.979 34.8622H130.725V26.0281L125.399 7.58435H130.776L133.306 19.1045L135.654 7.58435H141L135.979 25.9419V34.8622Z" fill="#004AAD"/>
</svg>
