<svg xmlns="http://www.w3.org/2000/svg" xmlns:xlink="http://www.w3.org/1999/xlink" width="500" zoomAndPan="magnify" viewBox="0 0 375 374.999991" height="500" preserveAspectRatio="xMidYMid meet" version="1.0"><defs><g/><clipPath id="39dde0b28e"><path d="M 130 130.453125 L 169 130.453125 L 169 156 L 130 156 Z M 130 130.453125 " clip-rule="nonzero"/></clipPath><clipPath id="b6581ffa75"><path d="M 172 156 L 181.886719 156 L 181.886719 173 L 172 173 Z M 172 156 " clip-rule="nonzero"/></clipPath><clipPath id="992042fbdc"><path d="M 26.636719 174 L 36 174 L 36 191 L 26.636719 191 Z M 26.636719 174 " clip-rule="nonzero"/></clipPath><clipPath id="6a007f4f3d"><path d="M 40 231 L 167 231 L 167 244.453125 L 40 244.453125 Z M 40 231 " clip-rule="nonzero"/></clipPath></defs><rect x="-37.5" width="450" fill="#F5F5F5" y="-37.499999" height="449.999989" fill-opacity="1"/><rect x="-37.5" width="450" fill="#F5F5F5" y="-37.499999" height="449.999989" fill-opacity="1"/><rect x="-37.5" width="450" fill="#F5F5F5" y="-37.499999" height="449.999989" fill-opacity="1"/><g clip-path="url(#39dde0b28e)"><path fill="#008037" d="M 164.804688 136.902344 C 164.402344 139.707031 164.246094 142.484375 164.316406 145.210938 C 165.582031 144.628906 166.839844 144.035156 168.089844 143.433594 C 167.757812 139.332031 167.886719 135.015625 168.546875 130.460938 C 156.628906 140.761719 144.234375 149.679688 130.507812 154.792969 C 130.703125 155.078125 130.871094 155.382812 131.019531 155.703125 C 141.390625 151.839844 155.800781 144.683594 164.804688 136.902344 Z M 164.804688 136.902344 " fill-opacity="1" fill-rule="evenodd"/></g><g clip-path="url(#b6581ffa75)"><path fill="#008037" d="M 174.9375 160.644531 C 174.007812 161.902344 173.140625 163.1875 172.339844 164.492188 C 172.414062 167.207031 172.691406 169.90625 173.15625 172.589844 C 175.082031 167.125 177.933594 161.710938 181.886719 156.363281 C 178.753906 157.066406 175.628906 157.714844 172.511719 158.292969 C 172.433594 159.253906 172.378906 160.210938 172.347656 161.167969 C 173.230469 161.007812 174.09375 160.835938 174.9375 160.644531 Z M 174.9375 160.644531 " fill-opacity="1" fill-rule="evenodd"/></g><path fill="#008037" d="M 129.402344 158.132812 C 129.324219 157.753906 129.222656 157.386719 129.085938 157.035156 C 145.003906 155.035156 160.460938 148.640625 175.761719 140.660156 C 168.058594 160.199219 171.136719 177.535156 179.558594 193.777344 L 134.679688 183.882812 C 135.015625 183.105469 135.273438 182.285156 135.484375 181.441406 L 171.933594 189.191406 C 165.574219 176.921875 164.332031 161.347656 170.148438 146.585938 C 158.59375 152.613281 141.429688 156.625 129.402344 158.132812 Z M 129.402344 158.132812 " fill-opacity="1" fill-rule="evenodd"/><path fill="#008037" d="M 165.632812 184.015625 C 165.585938 183.882812 165.539062 183.746094 165.492188 183.609375 C 165.539062 183.746094 165.585938 183.882812 165.632812 184.015625 Z M 165.632812 184.015625 " fill-opacity="1" fill-rule="evenodd"/><path fill="#008037" d="M 163.445312 156.757812 L 163.519531 156.300781 C 163.496094 156.453125 163.46875 156.605469 163.445312 156.757812 Z M 163.445312 156.757812 " fill-opacity="1" fill-rule="evenodd"/><path fill="#008037" d="M 163.707031 155.304688 C 163.734375 155.152344 163.765625 155.003906 163.796875 154.855469 C 163.765625 155.003906 163.734375 155.152344 163.707031 155.304688 Z M 163.707031 155.304688 " fill-opacity="1" fill-rule="evenodd"/><path fill="#008037" d="M 163.800781 154.84375 C 163.828125 154.691406 163.863281 154.542969 163.890625 154.394531 Z M 163.800781 154.84375 " fill-opacity="1" fill-rule="evenodd"/><path fill="#008037" d="M 163.90625 154.335938 C 163.933594 154.203125 163.964844 154.066406 163.992188 153.933594 C 163.964844 154.066406 163.933594 154.203125 163.90625 154.335938 Z M 163.90625 154.335938 " fill-opacity="1" fill-rule="evenodd"/><path fill="#008037" d="M 164.007812 153.875 C 164.039062 153.722656 164.074219 153.566406 164.109375 153.414062 C 164.074219 153.566406 164.039062 153.722656 164.007812 153.875 Z M 164.007812 153.875 " fill-opacity="1" fill-rule="evenodd"/><path fill="#008037" d="M 161.765625 144.234375 C 161.769531 144.933594 161.789062 145.636719 161.820312 146.332031 C 160.878906 146.75 159.933594 147.15625 158.984375 147.554688 C 158.875 147.503906 158.761719 147.445312 158.660156 147.382812 C 158.238281 147.121094 157.90625 146.765625 157.671875 146.363281 C 154.945312 148.097656 152.070312 149.753906 149.148438 151.300781 C 147.433594 151.878906 145.710938 152.421875 143.976562 152.921875 C 145.90625 151.992188 147.808594 151.019531 149.679688 150.007812 C 153.347656 148.03125 156.945312 145.878906 160.367188 143.507812 L 161.753906 142.546875 L 161.765625 144.230469 Z M 161.765625 144.234375 " fill-opacity="1" fill-rule="evenodd"/><path fill="#008037" d="M 43.964844 152.421875 C 44.144531 153.921875 44.257812 155.429688 44.304688 156.9375 L 45.242188 157.097656 C 45.222656 156.476562 45.195312 155.847656 45.15625 155.226562 C 45.691406 155.203125 46.226562 155.046875 46.707031 154.734375 C 47.167969 154.4375 47.523438 154.046875 47.761719 153.601562 L 61.910156 159.960938 L 65.578125 160.589844 L 43.765625 150.785156 L 43.960938 152.417969 Z M 43.964844 152.421875 " fill-opacity="1" fill-rule="evenodd"/><path fill="#008037" d="M 36.425781 155.585938 C 36.140625 150.527344 35.238281 145.457031 33.863281 140.386719 L 73.304688 158.46875 L 73.769531 158.683594 C 73.300781 159.34375 72.894531 160.058594 72.527344 160.804688 L 71.488281 160.335938 L 40.050781 146.207031 C 40.949219 149.519531 41.480469 152.964844 41.621094 156.480469 L 36.425781 155.589844 Z M 36.425781 155.585938 " fill-opacity="1" fill-rule="evenodd"/><g clip-path="url(#992042fbdc)"><path fill="#008037" d="M 33.078125 186.363281 C 33.90625 185.117188 34.675781 183.855469 35.382812 182.574219 C 35.1875 179.984375 34.800781 177.421875 34.234375 174.878906 C 32.644531 180.183594 30.167969 185.476562 26.636719 190.761719 C 29.59375 189.949219 32.546875 189.191406 35.492188 188.5 C 35.527344 187.578125 35.539062 186.660156 35.523438 185.746094 C 34.6875 185.9375 33.871094 186.144531 33.078125 186.363281 Z M 33.078125 186.363281 " fill-opacity="1" fill-rule="evenodd"/></g><path fill="#008037" d="M 70.222656 188.003906 L 70.257812 189.203125 C 57.570312 192.445312 45.300781 198.417969 33.191406 205.476562 C 39.660156 186.476562 35.941406 170.066406 27.171875 154.941406 L 70.457031 162.371094 C 70.171875 163.128906 69.964844 163.921875 69.804688 164.738281 L 34.65625 158.980469 C 41.28125 170.410156 43.167969 185.21875 38.28125 199.570312 C 47.140625 194.402344 59.695312 190.375 70.222656 188.007812 Z M 70.222656 188.003906 " fill-opacity="1" fill-rule="evenodd"/><path fill="#008037" d="M 42.824219 192.613281 C 44.5625 183.011719 43.679688 173.042969 40.039062 163.976562 L 39.425781 162.449219 L 70.335938 167.511719 L 70.25 168.375 C 70.175781 169.175781 70.109375 169.980469 70.023438 170.78125 C 69.871094 172.277344 69.796875 173.824219 69.84375 175.328125 C 69.847656 175.527344 69.863281 175.839844 69.890625 176.210938 L 70.007812 180.316406 C 68.570312 178.304688 68.851562 173.054688 69.097656 170.683594 C 69.179688 169.902344 69.25 169.097656 69.324219 168.289062 L 40.902344 163.632812 L 44.011719 164.140625 C 43.894531 164.632812 43.65625 165.105469 43.289062 165.507812 C 42.902344 165.929688 42.425781 166.222656 41.914062 166.378906 C 44.414062 173.816406 45.160156 181.753906 44.226562 189.546875 L 44.265625 189.214844 C 45.097656 189.121094 45.960938 189.367188 46.625 189.96875 C 47.011719 190.320312 47.28125 190.746094 47.441406 191.207031 L 47.144531 191.328125 C 54.507812 188.34375 62.640625 185.976562 70.121094 184.351562 L 70.148438 185.292969 C 65.496094 186.308594 60.875 187.550781 56.367188 188.992188 C 52.214844 190.320312 48.097656 191.84375 44.121094 193.625 L 42.507812 194.347656 Z M 42.824219 192.613281 " fill-opacity="1" fill-rule="evenodd"/><path fill="#008037" d="M 40.902344 163.632812 C 40.953125 163.757812 41.007812 163.886719 41.054688 164.015625 C 41.003906 163.886719 40.953125 163.757812 40.902344 163.632812 Z M 40.902344 163.632812 " fill-opacity="1" fill-rule="evenodd"/><path fill="#008037" d="M 44.222656 189.558594 L 44.167969 189.996094 C 44.1875 189.851562 44.207031 189.703125 44.222656 189.558594 Z M 44.222656 189.558594 " fill-opacity="1" fill-rule="evenodd"/><path fill="#008037" d="M 44.035156 190.957031 C 44.015625 191.101562 43.996094 191.246094 43.972656 191.386719 C 43.992188 191.246094 44.015625 191.097656 44.035156 190.957031 Z M 44.035156 190.957031 " fill-opacity="1" fill-rule="evenodd"/><path fill="#008037" d="M 43.96875 191.398438 C 43.949219 191.542969 43.921875 191.6875 43.902344 191.832031 Z M 43.96875 191.398438 " fill-opacity="1" fill-rule="evenodd"/><path fill="#008037" d="M 43.890625 191.886719 C 43.871094 192.019531 43.847656 192.148438 43.828125 192.277344 C 43.847656 192.148438 43.871094 192.019531 43.890625 191.886719 Z M 43.890625 191.886719 " fill-opacity="1" fill-rule="evenodd"/><path fill="#008037" d="M 43.816406 192.335938 C 43.792969 192.480469 43.765625 192.628906 43.738281 192.777344 C 43.765625 192.628906 43.792969 192.480469 43.816406 192.335938 Z M 43.816406 192.335938 " fill-opacity="1" fill-rule="evenodd"/><path fill="#100f0d" d="M 101.460938 152.300781 L 101.460938 152.042969 C 101.460938 151.140625 101.769531 150.304688 102.289062 149.640625 C 103.011719 148.71875 104.132812 148.125 105.386719 148.125 L 110.863281 148.125 C 113.019531 148.125 114.785156 149.886719 114.785156 152.042969 L 114.785156 188.332031 C 114.785156 188.660156 114.746094 188.976562 114.667969 189.28125 L 101.574219 189.28125 C 101.5 188.976562 101.460938 188.660156 101.460938 188.332031 L 101.460938 188.074219 C 101.460938 179.335938 101.460938 161.066406 101.460938 152.300781 Z M 130.097656 164.90625 L 128.855469 183.699219 C 128.6875 183.953125 128.246094 184.378906 128.085938 184.527344 C 127.316406 185.261719 126.535156 185.953125 125.792969 186.71875 C 124.433594 188.125 122.96875 189.28125 120.921875 189.28125 L 117.804688 189.28125 C 117.734375 189.203125 117.664062 189.125 117.601562 189.042969 C 117.082031 188.378906 116.769531 187.542969 116.769531 186.640625 L 116.769531 154.390625 C 116.769531 153.488281 117.082031 152.652344 117.601562 151.988281 C 118.320312 151.070312 119.441406 150.476562 120.695312 150.476562 L 126.171875 150.476562 C 128.332031 150.476562 130.101562 152.238281 130.101562 154.390625 L 130.101562 164.910156 Z M 99.417969 187.433594 L 99.417969 187.46875 C 99.417969 188.121094 99.257812 188.734375 98.96875 189.28125 L 97.15625 189.28125 C 95.796875 189.28125 94.492188 189.75 93.554688 190.75 C 93.367188 190.949219 93.203125 191.160156 93.058594 191.382812 L 90.015625 191.382812 C 88.761719 191.382812 87.644531 190.789062 86.921875 189.871094 C 86.402344 189.207031 86.09375 188.371094 86.09375 187.46875 L 86.09375 155.21875 C 86.09375 154.316406 86.402344 153.480469 86.921875 152.816406 C 87.644531 151.894531 88.761719 151.304688 90.015625 151.304688 L 95.496094 151.304688 C 97.652344 151.304688 99.417969 153.066406 99.417969 155.21875 Z M 131.15625 181.246094 L 132.132812 181.742188 C 132.199219 181.542969 132.257812 181.339844 132.316406 181.136719 L 131.539062 180.972656 L 132.082031 177.171875 C 132.203125 176.328125 132.3125 175.484375 132.441406 174.644531 C 132.660156 173.214844 132.800781 171.761719 132.824219 170.320312 C 132.832031 169.792969 132.808594 168.621094 132.675781 167.828125 L 131.953125 167.566406 L 131.039062 181.464844 Z M 117.230469 204.597656 C 130.855469 204.597656 132.765625 202.527344 139.109375 195.277344 L 129.59375 190.359375 L 126.570312 188.796875 C 125.644531 189.65625 124.65625 190.375 123.523438 190.816406 L 123.507812 190.824219 L 123.3125 190.894531 L 123.222656 190.925781 L 123.207031 190.929688 L 123.117188 190.960938 L 123.101562 190.964844 L 123.011719 190.996094 L 122.996094 190.996094 L 122.902344 191.027344 L 122.890625 191.027344 L 122.796875 191.054688 L 122.78125 191.058594 L 122.742188 191.070312 L 122.671875 191.085938 L 122.574219 191.113281 L 122.5625 191.113281 L 122.460938 191.136719 L 122.449219 191.140625 L 122.402344 191.148438 L 122.226562 191.183594 L 122.121094 191.199219 L 122.109375 191.203125 L 122.007812 191.21875 L 121.996094 191.21875 L 121.890625 191.234375 L 121.882812 191.234375 L 121.773438 191.25 L 121.765625 191.25 L 121.652344 191.261719 L 121.648438 191.265625 L 121.535156 191.273438 L 121.53125 191.273438 L 121.410156 191.285156 L 121.292969 191.289062 L 121.171875 191.292969 L 121.046875 191.296875 L 120.925781 191.300781 C 120.925781 191.304688 113.285156 191.300781 112.628906 191.300781 L 102.980469 191.300781 C 99.9375 191.300781 93.761719 189.964844 94.46875 194.847656 C 94.769531 196.910156 96.023438 199.347656 96.484375 200.679688 C 97.230469 202.832031 99.605469 204.59375 101.765625 204.59375 L 117.234375 204.59375 Z M 121.046875 191.300781 Z M 121.167969 191.296875 Z M 121.414062 191.285156 Z M 123.3125 190.894531 Z M 71.335938 183.753906 L 71.335938 163.25 L 71.351562 163.207031 L 71.335938 163.203125 L 71.335938 160.089844 C 71.335938 159.183594 71.644531 158.351562 72.164062 157.683594 C 72.882812 156.765625 74.003906 156.171875 75.257812 156.171875 L 80.738281 156.171875 C 82.894531 156.171875 84.660156 157.933594 84.660156 160.089844 L 84.660156 186.914062 C 84.660156 189.066406 82.894531 190.828125 80.738281 190.828125 L 75.257812 190.828125 C 74.003906 190.828125 72.882812 190.238281 72.164062 189.316406 C 71.644531 188.652344 71.335938 187.816406 71.335938 186.914062 L 71.335938 183.800781 L 71.351562 183.796875 Z M 71.335938 183.753906 " fill-opacity="1" fill-rule="evenodd"/><path fill="#100f0d" d="M 133.949219 202.328125 C 133.300781 202.882812 132.617188 203.398438 131.882812 203.855469 C 127.503906 206.578125 121.59375 206.671875 116.59375 206.671875 L 101.84375 206.671875 C 100.28125 206.671875 98.722656 206.039062 97.457031 205.035156 C 96.328125 204.136719 95.4375 202.945312 94.984375 201.644531 C 94.578125 200.472656 94.015625 199.339844 93.601562 198.144531 C 93.328125 197.363281 93.097656 196.550781 92.976562 195.730469 C 92.898438 195.171875 92.882812 194.613281 92.949219 194.074219 L 90.648438 194.074219 C 88.898438 194.074219 87.253906 193.265625 86.175781 191.890625 L 86.015625 191.671875 C 84.972656 192.824219 83.46875 193.546875 81.800781 193.546875 L 76.578125 193.546875 C 75.542969 193.546875 74.546875 193.265625 73.683594 192.753906 C 73.683594 203.371094 76.679688 211.730469 86.382812 214.15625 C 86.171875 214.101562 88.457031 219.695312 88.757812 220.679688 C 89.550781 223.257812 90.234375 226.289062 90.753906 229.894531 L 117.398438 229.894531 C 117.914062 226.289062 118.597656 223.257812 119.390625 220.679688 C 120.25 217.882812 121.238281 215.617188 122.285156 213.738281 C 121.945312 213.828125 133.953125 210.347656 133.953125 202.324219 Z M 128.886719 231.246094 L 125.402344 224.636719 C 124.957031 226.292969 124.5625 228.050781 124.175781 229.988281 L 124.0625 230.542969 C 125.671875 230.75 127.28125 230.988281 128.886719 231.246094 Z M 118.613281 228.375 C 118.527344 228.886719 118.449219 229.402344 118.371094 229.917969 L 119.140625 229.988281 C 120.21875 230.09375 121.296875 230.210938 122.375 230.335938 L 122.296875 230.0625 C 121.492188 227.273438 122.171875 224.078125 123.476562 220.96875 L 122.882812 219.84375 L 121.59375 217.398438 C 121.109375 218.5625 120.6875 219.757812 120.316406 220.960938 C 119.574219 223.378906 119.027344 225.871094 118.613281 228.371094 Z M 118.613281 228.375 " fill-opacity="1" fill-rule="evenodd"/><path fill="#008037" d="M 123.226562 229.796875 C 124.246094 224.695312 125.265625 219.402344 130.050781 211.640625 C 126.484375 216.785156 121.632812 224.273438 123.226562 229.796875 Z M 79.78125 225.65625 C 79.019531 221.851562 78.257812 217.910156 74.691406 212.121094 C 77.351562 215.957031 80.964844 221.539062 79.78125 225.65625 Z M 84.960938 229.796875 C 86.554688 224.273438 81.703125 216.785156 78.136719 211.640625 C 82.921875 219.402344 83.945312 224.695312 84.960938 229.796875 Z M 128.410156 225.65625 C 127.222656 221.539062 130.835938 215.957031 133.496094 212.121094 C 129.925781 217.910156 129.167969 221.851562 128.410156 225.65625 Z M 128.410156 225.65625 " fill-opacity="1" fill-rule="evenodd"/><path fill="#008037" d="M 123.492188 229.667969 L 123.269531 230.789062 L 123 229.863281 C 122.183594 227.039062 123.007812 223.730469 124.488281 220.480469 C 125.953125 217.261719 128.058594 214.097656 129.847656 211.519531 L 129.855469 211.507812 L 130.25 211.761719 C 125.542969 219.402344 124.496094 224.640625 123.492188 229.667969 Z M 123.222656 228.617188 C 123.933594 225.109375 124.769531 221.429688 126.925781 216.867188 C 126.195312 218.105469 125.503906 219.386719 124.917969 220.671875 C 123.671875 223.40625 122.902344 226.175781 123.222656 228.617188 Z M 79.550781 225.703125 L 79.523438 225.574219 C 78.777344 221.828125 77.996094 217.929688 74.492188 212.242188 L 74.886719 211.988281 L 74.894531 212.003906 C 76.230469 213.925781 77.800781 216.285156 78.894531 218.6875 C 80 221.121094 80.617188 223.601562 80.007812 225.71875 L 79.738281 226.652344 Z M 77.597656 217.152344 C 78.761719 219.875 79.308594 222.175781 79.761719 224.375 C 79.875 222.664062 79.320312 220.761719 78.464844 218.878906 C 78.199219 218.300781 77.90625 217.722656 77.597656 217.152344 Z M 84.964844 228.617188 C 85.285156 226.171875 84.515625 223.40625 83.269531 220.671875 C 82.683594 219.386719 81.996094 218.109375 81.265625 216.871094 C 83.417969 221.433594 84.257812 225.109375 84.964844 228.617188 Z M 83.699219 220.480469 C 85.179688 223.730469 86.003906 227.039062 85.1875 229.863281 L 84.917969 230.789062 L 84.695312 229.675781 C 83.691406 224.644531 82.648438 219.40625 77.9375 211.761719 L 78.332031 211.503906 L 78.339844 211.519531 C 80.128906 214.097656 82.234375 217.261719 83.699219 220.476562 Z M 128.183594 225.722656 C 127.570312 223.601562 128.1875 221.121094 129.296875 218.6875 C 130.386719 216.289062 131.957031 213.925781 133.292969 212.003906 L 133.300781 211.988281 L 133.695312 212.246094 C 130.191406 217.933594 129.410156 221.832031 128.664062 225.574219 L 128.449219 226.652344 L 128.179688 225.722656 Z M 129.722656 218.878906 C 128.867188 220.765625 128.3125 222.667969 128.425781 224.375 C 128.878906 222.175781 129.425781 219.875 130.589844 217.152344 C 130.28125 217.722656 129.988281 218.300781 129.726562 218.878906 Z M 129.722656 218.878906 " fill-opacity="1" fill-rule="evenodd"/><g clip-path="url(#6a007f4f3d)"><path fill="#008037" d="M 166.097656 244.449219 C 124.113281 235.300781 82.578125 235.304688 40.996094 244.449219 C 82.097656 228.054688 123.738281 226.441406 166.097656 244.449219 Z M 166.097656 244.449219 " fill-opacity="1" fill-rule="evenodd"/></g><path fill="#008037" d="M 136.15625 177.753906 L 162.40625 183.332031 C 162.554688 182.824219 162.828125 182.34375 163.234375 181.941406 C 163.660156 181.515625 164.171875 181.234375 164.710938 181.09375 C 162.5 173.308594 162.085938 165.105469 163.382812 157.113281 C 162.507812 157.171875 161.617188 156.871094 160.953125 156.207031 C 160.566406 155.824219 160.304688 155.363281 160.160156 154.875 L 160.46875 154.765625 C 150.582031 158.238281 139.449219 160.628906 130.097656 161.820312 L 130.097656 163.039062 C 130.78125 162.980469 131.382812 162.988281 132.285156 163.316406 L 135.085938 164.332031 C 137.644531 165.261719 136.953125 172.355469 136.511719 175.257812 C 136.386719 176.074219 136.277344 176.910156 136.15625 177.753906 Z M 150.460938 172.582031 C 148.183594 172.800781 146.15625 171.128906 145.9375 168.851562 C 145.722656 166.578125 147.394531 164.554688 149.675781 164.339844 C 152.453125 164.074219 154.660156 166.566406 154.144531 169.242188 C 153.804688 171.003906 152.339844 172.402344 150.460938 172.582031 Z M 150.460938 172.582031 " fill-opacity="1" fill-rule="evenodd"/><path fill="#008037" d="M 149.972656 168.621094 L 150.089844 170.757812 C 149.019531 170.808594 149 169.746094 148.964844 169.667969 C 148.957031 169.636719 148.839844 169.554688 148.832031 169.820312 C 148.828125 170.023438 148.796875 170.839844 148.90625 170.929688 C 149.121094 171.101562 149.800781 171.117188 150.109375 171.09375 L 150.15625 171.957031 L 150.621094 171.933594 L 150.570312 171.015625 C 151.871094 170.652344 152.160156 169.175781 151.039062 168.191406 L 150.386719 167.707031 L 150.289062 165.890625 C 151.214844 165.855469 151.265625 166.707031 151.285156 166.738281 C 151.296875 166.765625 151.421875 166.855469 151.402344 166.554688 L 151.355469 165.65625 L 150.269531 165.570312 L 150.226562 164.703125 L 149.757812 164.730469 L 149.8125 165.652344 C 148.632812 166.011719 148.4375 167.25 149.378906 168.152344 C 149.527344 168.292969 149.707031 168.4375 149.921875 168.585938 Z M 149.828125 166.003906 L 149.902344 167.359375 C 149.351562 166.90625 149.296875 166.324219 149.828125 166.003906 Z M 150.457031 168.96875 C 151.164062 169.535156 151.199219 170.324219 150.550781 170.652344 Z M 150.457031 168.96875 " fill-opacity="1" fill-rule="evenodd"/><path fill="#008037" d="M 57.320312 177.71875 L 57.460938 180.292969 C 56.167969 180.355469 56.144531 179.074219 56.105469 178.980469 C 56.09375 178.945312 55.953125 178.84375 55.945312 179.164062 C 55.941406 179.410156 55.902344 180.390625 56.035156 180.5 C 56.292969 180.707031 57.113281 180.722656 57.484375 180.699219 L 57.542969 181.738281 L 58.101562 181.707031 L 58.039062 180.605469 C 59.601562 180.167969 59.953125 178.386719 58.605469 177.203125 L 57.816406 176.617188 L 57.699219 174.429688 C 58.816406 174.386719 58.875 175.414062 58.898438 175.453125 C 58.914062 175.480469 59.0625 175.589844 59.042969 175.226562 L 58.988281 174.148438 L 57.675781 174.039062 L 57.621094 173 L 57.0625 173.03125 L 57.125 174.140625 C 55.707031 174.574219 55.472656 176.066406 56.605469 177.152344 C 56.785156 177.320312 57 177.496094 57.257812 177.675781 Z M 57.144531 174.566406 L 57.234375 176.199219 C 56.570312 175.652344 56.507812 174.949219 57.144531 174.566406 Z M 57.902344 178.136719 C 58.753906 178.820312 58.796875 179.773438 58.015625 180.164062 Z M 57.902344 178.136719 " fill-opacity="1" fill-rule="evenodd"/><g fill="#004aad" fill-opacity="1"><g transform="translate(191.33235, 198.261489)"><g><path d="M 9.9375 -5.78125 L 19.140625 -5.78125 L 19.140625 0 L 1.84375 0 L 1.84375 -29.671875 L 9.9375 -29.671875 Z M 9.9375 -5.78125 "/></g></g></g><g fill="#004aad" fill-opacity="1"><g transform="translate(210.469454, 198.261489)"><g><path d="M 8.5 -29.671875 L 15.34375 -29.671875 C 19.875 -29.671875 22.140625 -27.757812 22.140625 -23.9375 L 22.140625 -5.734375 C 22.140625 -1.910156 19.875 0 15.34375 0 L 8.5 0 C 3.96875 0 1.703125 -1.910156 1.703125 -5.734375 L 1.703125 -23.9375 C 1.703125 -27.757812 3.96875 -29.671875 8.5 -29.671875 Z M 14.046875 -6.796875 L 14.046875 -22.875 C 14.046875 -23.550781 13.660156 -23.890625 12.890625 -23.890625 L 10.953125 -23.890625 C 10.179688 -23.890625 9.796875 -23.550781 9.796875 -22.875 L 9.796875 -6.796875 C 9.796875 -6.117188 10.179688 -5.78125 10.953125 -5.78125 L 12.890625 -5.78125 C 13.660156 -5.78125 14.046875 -6.117188 14.046875 -6.796875 Z M 14.046875 -6.796875 "/></g></g></g><g fill="#004aad" fill-opacity="1"><g transform="translate(234.321501, 198.261489)"><g><path d="M 16.96875 0 L 16.03125 -4.4375 L 8.921875 -4.4375 L 7.953125 0 L 0 0 L 7.625 -29.671875 L 17.46875 -29.671875 L 25.09375 0 Z M 10.171875 -10.171875 L 14.796875 -10.171875 L 12.53125 -20.84375 Z M 10.171875 -10.171875 "/></g></g></g><g fill="#004aad" fill-opacity="1"><g transform="translate(259.421619, 198.261489)"><g><path d="M 15.390625 -29.671875 L 22.78125 -29.671875 L 22.78125 0 L 15.859375 0 L 9.25 -15.578125 L 9.25 0 L 1.84375 0 L 1.84375 -29.671875 L 8.78125 -29.671875 L 15.390625 -13.8125 Z M 15.390625 -29.671875 "/></g></g></g><g fill="#004aad" fill-opacity="1"><g transform="translate(284.059486, 198.261489)"><g><path d="M 1.84375 -29.671875 L 9.9375 -29.671875 L 9.9375 0 L 1.84375 0 Z M 1.84375 -29.671875 "/></g></g></g><g fill="#004aad" fill-opacity="1"><g transform="translate(295.846834, 198.261489)"><g><path d="M 19.640625 -23.890625 L 9.9375 -23.890625 L 9.9375 -16.6875 L 18.34375 -16.6875 L 18.34375 -11.375 L 9.9375 -11.375 L 9.9375 0 L 1.84375 0 L 1.84375 -29.671875 L 19.640625 -29.671875 Z M 19.640625 -23.890625 "/></g></g></g><g fill="#004aad" fill-opacity="1"><g transform="translate(316.185791, 198.261489)"><g><path d="M 16.265625 0 L 8.1875 0 L 8.1875 -9.609375 L 0 -29.671875 L 8.265625 -29.671875 L 12.15625 -17.140625 L 15.765625 -29.671875 L 23.984375 -29.671875 L 16.265625 -9.703125 Z M 16.265625 0 "/></g></g></g></svg>