<svg width="20" height="20" viewBox="0 0 20 20" fill="none" xmlns="http://www.w3.org/2000/svg">
<path d="M7.89832 4.5491L5.02647 1.6409C4.75989 1.37095 4.31711 1.38165 4.0375 1.66481L2.03777 3.68985C-0.493664 6.25333 3.32836 11.1491 6.21605 14.0734C9.08644 16.9801 13.9626 20.8926 16.494 18.3291L18.4938 16.3041C18.7734 16.0209 18.7839 15.5725 18.5174 15.3026L15.6455 12.3944C15.3789 12.1244 14.9362 12.1351 14.6565 12.4183L12.6568 14.4433C12.6568 14.4433 11.6933 14.4414 8.75963 11.5221C5.82594 8.6029 5.87501 7.57561 5.87501 7.57561L7.87471 5.55059C8.15433 5.26744 8.1649 4.81905 7.89832 4.5491Z" stroke="#A90636" stroke-linecap="round" stroke-linejoin="round"/>
</svg>
